<?xml version="1.0" encoding="utf-8"?>
<!-- Generator: Adobe Illustrator 27.7.0, SVG Export Plug-In . SVG Version: 6.00 Build 0)  -->
<svg version="1.1" id="Layer_1" xmlns="http://www.w3.org/2000/svg" xmlns:xlink="http://www.w3.org/1999/xlink" x="0px" y="0px"
	 viewBox="0 0 1267.3 493.5" style="enable-background:new 0 0 1267.3 493.5;" xml:space="preserve">
<style type="text/css">
	.st0{fill:#FFFFFF;}
	.st1{fill:#8DC63F;}
	.st2{fill:#A7A9AC;}
	.st3{fill-rule:evenodd;clip-rule:evenodd;fill:#F8991D;}
</style>
<g>
	<g>
		<g>
			<g>
				<path class="st0" d="M515.4,405.4v-1.8h1.2c0.6,0,1.5,0,1.5,0.8c0,0.8-0.4,1-1.2,1L515.4,405.4 M515.4,406.7h0.8l1.8,3.2h2
					l-2-3.3c1-0.1,1.9-0.6,1.9-2c0-1.7-1.2-2.3-3.2-2.3h-2.9v7.5h1.7L515.4,406.7 M523.8,406.1c0-4.4-3.4-7-7.3-7
					c-3.8,0-7.3,2.6-7.3,7c0,4.4,3.4,7,7.3,7C520.4,413.1,523.8,410.5,523.8,406.1 M521.7,406.1c0,3.2-2.4,5.4-5.2,5.4v0
					c-2.9,0-5.2-2.1-5.2-5.4c0-3.2,2.3-5.4,5.2-5.4C519.4,400.7,521.7,402.9,521.7,406.1 M257.6,331.4l0,79.2H280v-79.2L257.6,331.4
					L257.6,331.4z M81.6,331.3v79.3h22.6v-60.2l17.5,0c5.8,0,9.9,1.4,12.7,4.4c3.5,3.8,5,9.9,5,21v34.8h21.9v-43.8
					c0-31.3-19.9-35.5-39.5-35.5H81.6L81.6,331.3z M293.7,331.4v79.2H330c19.3,0,25.6-3.2,32.5-10.4c4.8-5.1,7.9-16.2,7.9-28.3
					c0-11.1-2.6-21.1-7.2-27.3c-8.3-11.1-20.2-13.2-38.1-13.2H293.7z M315.9,348.6h9.6c14,0,23,6.3,23,22.5c0,16.3-9,22.5-23,22.5
					h-9.6V348.6z M225.4,331.4l-18.7,62.8l-17.9-62.8l-24.2,0l25.6,79.2h32.3l25.8-79.2H225.4z M380.8,410.6h22.4v-79.2l-22.4,0
					L380.8,410.6z M443.5,331.4l-31.2,79.2h22.1l4.9-14h37l4.7,14h24l-31.5-79.2L443.5,331.4L443.5,331.4z M458,345.9l13.6,37.1
					h-27.5L458,345.9z"/>
				<path class="st1" d="M228.1,145.8v-19c1.8-0.1,3.7-0.2,5.6-0.3c52.1-1.6,86.2,44.7,86.2,44.7s-36.9,51.2-76.4,51.2
					c-5.7,0-10.8-0.9-15.4-2.5v-57.7c20.3,2.4,24.3,11.4,36.5,31.7l27.1-22.8c0,0-19.8-25.9-53.1-25.9
					C234.9,145.2,231.5,145.4,228.1,145.8 M228.1,82.9v28.4c1.9-0.1,3.7-0.3,5.6-0.3c72.4-2.4,119.6,59.4,119.6,59.4
					s-54.2,65.9-110.6,65.9c-5.2,0-10-0.5-14.6-1.3v17.6c3.9,0.5,7.9,0.8,12.1,0.8c52.5,0,90.5-26.8,127.3-58.6
					c6.1,4.9,31.1,16.8,36.2,22c-35,29.3-116.5,52.9-162.7,52.9c-4.5,0-8.7-0.3-12.9-0.7v24.7h199.6V82.9L228.1,82.9L228.1,82.9z
					 M228.1,220v15c-48.6-8.7-62.1-59.2-62.1-59.2s23.3-25.8,62.1-30v16.5c0,0,0,0-0.1,0c-20.3-2.4-36.2,16.6-36.2,16.6
					S200.7,210.8,228.1,220 M141.8,173.6c0,0,28.8-42.5,86.3-46.9v-15.4c-63.7,5.1-118.8,59-118.8,59s31.2,90.3,118.8,98.6v-16.4
					C163.8,244.5,141.8,173.6,141.8,173.6"/>
			</g>
		</g>
	</g>
</g>
<rect x="647.7" y="25.9" class="st2" width="2.1" height="453.6"/>
<g id="LOGO">
	<path class="st0" d="M887.4,225.2c-0.1,4,0.4,8,1.5,11.8c1.1,3.3,2.6,6.5,4.3,9.5c0.6,0.9,0.9,1.9,0.9,3c-0.1,1.6-1.1,3.1-2.6,3.9
		l-8,5.6c-1.1,0.7-2.3,1.1-3.5,1.2c-1.5-0.1-2.9-0.7-3.9-1.9c-1.9-1.9-3.5-3.9-4.8-6.1c-1.5-2.6-2.9-5.3-4.1-8
		c-9.5,11.8-23.9,18.6-39,18.4c-9.8,0.5-19.3-2.9-26.5-9.5c-6.7-6.8-10.2-16-9.8-25.6c-0.4-10.3,3.9-20.3,11.7-27.2
		c9.3-7.3,20.8-10.9,32.6-10.3c4.7,0,9.4,0.4,14,1.1c4.9,0.7,10,1.6,15.3,2.9v-9.8c0.8-7.6-1.5-15.3-6.3-21.2
		c-6.1-4.8-13.9-6.9-21.7-6.1c-4.8,0-9.6,0.6-14.3,1.8c-4.8,1.1-9.6,2.7-14.3,4.6c-1.5,0.7-3.1,1.3-4.6,1.8h-2.1
		c-1.9,0-2.8-1.4-2.8-4.1v-6.4c-0.1-1.6,0.2-3.2,0.9-4.6c1-1.2,2.3-2.2,3.8-2.8c5.3-2.6,10.9-4.6,16.7-6c6.8-1.7,13.7-2.6,20.7-2.6
		c12.5-1.1,25,2.8,34.7,10.8c8,8.9,12,20.7,11.1,32.7L887.4,225.2L887.4,225.2z M833.4,245.4c4.7-0.1,9.3-0.9,13.8-2.5
		c4.8-1.7,9.2-4.6,12.5-8.6c2.1-2.3,3.6-5.1,4.5-8c0.9-3.8,1.4-7.6,1.3-11.5v-5.6c-4.1-0.9-8.1-1.7-12.3-2.2
		c-4.1-0.5-8.3-0.8-12.5-0.8c-7-0.5-14,1.4-19.8,5.3c-7.8,7.8-8.4,20.3-1.4,28.8C823.3,243.9,828.3,245.7,833.4,245.4L833.4,245.4z
		 M940,259.8c-1.8,0.1-3.6-0.3-5.1-1.3c-1.4-1.4-2.4-3.2-2.8-5.2L901,150.5c-0.6-1.7-1-3.5-1.2-5.3c-0.3-1.6,0.8-3,2.4-3.3h0.1
		c0.3-0.1,0.6-0.1,0.9,0h13c1.9-0.2,3.6,0.3,5.2,1.3c1.4,1.5,2.2,3.3,2.6,5.2l22.3,87.8l20.7-87.8c0.3-1.9,1.2-3.7,2.6-5.1
		c1.6-1,3.5-1.4,5.3-1.3h10.7c1.9-0.1,3.8,0.3,5.3,1.3c1.4,1.4,2.3,3.2,2.6,5.2l20.8,89l23-89c0.4-1.9,1.4-3.7,2.7-5.2
		c1.5-1,3.4-1.5,5.2-1.3h12.3c1.6-0.2,3,0.8,3.3,2.4v0.1c0.1,0.3,0.1,0.6,0,0.9c0.1,0.7,0.1,1.4,0,2.1c-0.3,1.1-0.6,2.2-0.9,3.3
		l-31.9,102.7c-0.4,2-1.4,3.8-2.8,5.2c-1.5,1-3.3,1.4-5.1,1.3h-11.7c-1.9,0.2-3.8-0.3-5.3-1.4c-1.4-1.5-2.3-3.4-2.6-5.3l-20.7-85.6
		l-20.5,85.5c-0.3,2-1.2,3.9-2.6,5.3c-1.6,1.1-3.5,1.6-5.3,1.4H940L940,259.8z M1110.7,263.3c-6.9,0-13.8-0.8-20.5-2.3
		c-5.3-1.1-10.5-2.9-15.3-5.3c-3-1.3-4.9-4.2-4.8-7.4v-6.8c0-2.8,1-4.1,3-4.1c0.9,0,1.7,0.2,2.5,0.5l3.4,1.4
		c4.7,2.1,9.6,3.6,14.6,4.6c5.3,1.1,10.6,1.6,16,1.6c6.8,0.4,13.5-1.1,19.4-4.4c4.4-2.6,7.1-7.4,6.8-12.5c0.1-3.4-1.2-6.8-3.6-9.3
		c-4.1-3.4-8.8-5.8-13.9-7.1l-19.3-6.1c-8.1-2.3-15.3-6.9-20.7-13.4c-4.3-5.5-6.6-12.3-6.6-19.3c-0.1-5.1,1.1-10.3,3.6-14.8
		c2.4-4.3,5.6-8,9.5-11c4.1-3.1,8.7-5.4,13.5-6.8c5.4-1.6,11.1-2.4,16.7-2.3c3,0,6,0.2,8.9,0.6s5.8,0.9,8.6,1.5
		c2.7,0.6,5.3,1.4,7.6,2.1c1.9,0.6,3.8,1.4,5.6,2.3c1.5,0.8,2.9,1.9,3.9,3.3c0.9,1.3,1.3,2.9,1.2,4.4v6.3c0,2.8-1,4.1-3.1,4.1
		c-1.8-0.2-3.5-0.7-5.1-1.6c-8.1-3.5-16.8-5.3-25.5-5.1c-6.1-0.3-12.2,1-17.7,3.8c-4.1,2.4-6.6,7-6.3,11.8c-0.1,3.6,1.4,7,3.9,9.4
		c4.3,3.4,9.3,5.9,14.6,7.3l18.8,5.7c8,2.1,15.1,6.6,20.5,12.8c4.2,5.5,6.4,12.3,6.2,19.2c0.1,5.3-1.1,10.6-3.5,15.4
		c-2.4,4.6-5.6,8.6-9.6,11.8c-4.4,3.4-9.4,5.9-14.8,7.4C1123.3,262.7,1117,263.5,1110.7,263.3L1110.7,263.3L1110.7,263.3z"/>
	<path class="st3" d="M1135.8,328.7c-43.7,32.3-107.2,49.5-161.3,49.5c-73.1,0.5-143.7-26.4-197.9-75.4c-4.1-3.7-0.5-8.7,4.5-5.9
		c60.2,34.4,128.3,52.5,197.6,52.5c51.8-0.3,103-10.8,150.7-30.9C1136.8,315.4,1143,323.4,1135.8,328.7L1135.8,328.7z"/>
	<path class="st3" d="M1154,308c-5.6-7.2-37-3.4-51.1-1.7c-4.2,0.5-4.9-3.2-1.1-5.9c25-17.5,66.1-12.5,70.8-6.6
		c4.7,5.9-1.3,47.1-24.7,66.7c-3.6,3-7.1,1.4-5.4-2.6C1147.7,344.6,1159.6,315.2,1154,308L1154,308z"/>
	<path class="st0" d="M887.4,225.2c-0.1,4,0.4,8,1.5,11.8c1.1,3.3,2.6,6.5,4.3,9.5c0.6,0.9,0.9,1.9,0.9,3c-0.1,1.6-1.1,3.1-2.6,3.9
		l-8,5.6c-1.1,0.7-2.3,1.1-3.5,1.2c-1.5-0.1-2.9-0.7-3.9-1.9c-1.9-1.9-3.5-3.9-4.8-6.1c-1.5-2.6-2.9-5.3-4.1-8
		c-9.5,11.8-23.9,18.6-39,18.4c-9.8,0.5-19.3-2.9-26.5-9.5c-6.7-6.8-10.2-16-9.8-25.6c-0.4-10.3,3.9-20.3,11.7-27.2
		c9.3-7.3,20.8-10.9,32.6-10.3c4.7,0,9.4,0.4,14,1.1c4.9,0.7,10,1.6,15.3,2.9v-9.8c0.8-7.6-1.5-15.3-6.3-21.2
		c-6.1-4.8-13.9-6.9-21.7-6.1c-4.8,0-9.6,0.6-14.3,1.8c-4.8,1.1-9.6,2.7-14.3,4.6c-1.5,0.7-3.1,1.3-4.6,1.8h-2.1
		c-1.9,0-2.8-1.4-2.8-4.1v-6.4c-0.1-1.6,0.2-3.2,0.9-4.6c1-1.2,2.3-2.2,3.8-2.8c5.3-2.6,10.9-4.6,16.7-6c6.8-1.7,13.7-2.6,20.7-2.6
		c12.5-1.1,25,2.8,34.7,10.8c8,8.9,12,20.7,11.1,32.7L887.4,225.2L887.4,225.2z M833.4,245.4c4.7-0.1,9.3-0.9,13.8-2.5
		c4.8-1.7,9.2-4.6,12.5-8.6c2.1-2.3,3.6-5.1,4.5-8c0.9-3.8,1.4-7.6,1.3-11.5v-5.6c-4.1-0.9-8.1-1.7-12.3-2.2
		c-4.1-0.5-8.3-0.8-12.5-0.8c-7-0.5-14,1.4-19.8,5.3c-7.8,7.8-8.4,20.3-1.4,28.8C823.3,243.9,828.3,245.7,833.4,245.4L833.4,245.4z
		 M940,259.8c-1.8,0.1-3.6-0.3-5.1-1.3c-1.4-1.4-2.4-3.2-2.8-5.2L901,150.5c-0.6-1.7-1-3.5-1.2-5.3c-0.3-1.6,0.8-3,2.4-3.3h0.1
		c0.3-0.1,0.6-0.1,0.9,0h13c1.9-0.2,3.6,0.3,5.2,1.3c1.4,1.5,2.2,3.3,2.6,5.2l22.3,87.8l20.7-87.8c0.3-1.9,1.2-3.7,2.6-5.1
		c1.6-1,3.5-1.4,5.3-1.3h10.7c1.9-0.1,3.8,0.3,5.3,1.3c1.4,1.4,2.3,3.2,2.6,5.2l20.8,89l23-89c0.4-1.9,1.4-3.7,2.7-5.2
		c1.5-1,3.4-1.5,5.2-1.3h12.3c1.6-0.2,3,0.8,3.3,2.4v0.1c0.1,0.3,0.1,0.6,0,0.9c0.1,0.7,0.1,1.4,0,2.1c-0.3,1.1-0.6,2.2-0.9,3.3
		l-31.9,102.7c-0.4,2-1.4,3.8-2.8,5.2c-1.5,1-3.3,1.4-5.1,1.3h-11.7c-1.9,0.2-3.8-0.3-5.3-1.4c-1.4-1.5-2.3-3.4-2.6-5.3l-20.7-85.6
		l-20.5,85.5c-0.3,2-1.2,3.9-2.6,5.3c-1.6,1.1-3.5,1.6-5.3,1.4H940L940,259.8z M1110.7,263.3c-6.9,0-13.8-0.8-20.5-2.3
		c-5.3-1.1-10.5-2.9-15.3-5.3c-3-1.3-4.9-4.2-4.8-7.4v-6.8c0-2.8,1-4.1,3-4.1c0.9,0,1.7,0.2,2.5,0.5l3.4,1.4
		c4.7,2.1,9.6,3.6,14.6,4.6c5.3,1.1,10.6,1.6,16,1.6c6.8,0.4,13.5-1.1,19.4-4.4c4.4-2.6,7.1-7.4,6.8-12.5c0.1-3.4-1.2-6.8-3.6-9.3
		c-4.1-3.4-8.8-5.8-13.9-7.1l-19.3-6.1c-8.1-2.3-15.3-6.9-20.7-13.4c-4.3-5.5-6.6-12.3-6.6-19.3c-0.1-5.1,1.1-10.3,3.6-14.8
		c2.4-4.3,5.6-8,9.5-11c4.1-3.1,8.7-5.4,13.5-6.8c5.4-1.6,11.1-2.4,16.7-2.3c3,0,6,0.2,8.9,0.6s5.8,0.9,8.6,1.5
		c2.7,0.6,5.3,1.4,7.6,2.1c1.9,0.6,3.8,1.4,5.6,2.3c1.5,0.8,2.9,1.9,3.9,3.3c0.9,1.3,1.3,2.9,1.2,4.4v6.3c0,2.8-1,4.1-3.1,4.1
		c-1.8-0.2-3.5-0.7-5.1-1.6c-8.1-3.5-16.8-5.3-25.5-5.1c-6.1-0.3-12.2,1-17.7,3.8c-4.1,2.4-6.6,7-6.3,11.8c-0.1,3.6,1.4,7,3.9,9.4
		c4.3,3.4,9.3,5.9,14.6,7.3l18.8,5.7c8,2.1,15.1,6.6,20.5,12.8c4.2,5.5,6.4,12.3,6.2,19.2c0.1,5.3-1.1,10.6-3.5,15.4
		c-2.4,4.6-5.6,8.6-9.6,11.8c-4.4,3.4-9.4,5.9-14.8,7.4C1123.3,262.7,1117,263.5,1110.7,263.3L1110.7,263.3L1110.7,263.3z"/>
	<path class="st3" d="M1135.8,328.7c-43.7,32.3-107.2,49.5-161.3,49.5c-73.1,0.5-143.7-26.4-197.9-75.4c-4.1-3.7-0.5-8.7,4.5-5.9
		c60.2,34.4,128.3,52.5,197.6,52.5c51.8-0.3,103-10.8,150.7-30.9C1136.8,315.4,1143,323.4,1135.8,328.7L1135.8,328.7z"/>
	<path class="st3" d="M1154,308c-5.6-7.2-37-3.4-51.1-1.7c-4.2,0.5-4.9-3.2-1.1-5.9c25-17.5,66.1-12.5,70.8-6.6
		c4.7,5.9-1.3,47.1-24.7,66.7c-3.6,3-7.1,1.4-5.4-2.6C1147.7,344.6,1159.6,315.2,1154,308L1154,308z"/>
</g>
</svg>
